<svg width="294" height="46" viewBox="0 0 294 46" fill="none" xmlns="http://www.w3.org/2000/svg">
<path d="M0 22.9385C9.80742 23.7565 15.4422 24.5092 18.9016 26.9961C22.9672 29.9084 23.9301 35.2421 25 45.9097C26.1056 34.8495 27.1041 29.5484 31.5621 26.7016C35.0214 24.4764 40.6205 23.7565 50 22.9712C40.2282 22.1531 34.5578 21.4005 31.1341 18.9463C27.0328 16.0013 26.0699 10.7003 25 0C24.0014 9.84947 23.1098 15.1178 19.7932 18.161C16.4765 21.2042 10.699 22.055 0 22.9385Z" fill="white"/>
<path d="M293.5 22.9999C244.3 21.3999 110.667 22.3332 50 22.9999" stroke="white"/>
</svg>
