<svg width="294" height="46" viewBox="0 0 294 46" fill="none" xmlns="http://www.w3.org/2000/svg">
<path d="M294 22.9385C284.193 23.7565 278.558 24.5092 275.098 26.9961C271.033 29.9084 270.07 35.2421 269 45.9097C267.894 34.8495 266.896 29.5484 262.438 26.7016C258.979 24.4764 253.379 23.7565 244 22.9712C253.772 22.1531 259.442 21.4005 262.866 18.9463C266.967 16.0013 267.93 10.7003 269 0C269.999 9.84947 270.89 15.1178 274.207 18.161C277.524 21.2042 283.301 22.055 294 22.9385Z" fill="white"/>
<path d="M0.5 22.9999C49.7 21.3999 183.333 22.3332 244 22.9999" stroke="white"/>
</svg>
