<svg width="707" height="121" viewBox="0 0 707 121" fill="none" xmlns="http://www.w3.org/2000/svg">
<path d="M161.885 120.477L161.885 -2.44704e-05L301 -2.44704e-05L161.885 120.477Z" fill="#BBBBBB"/>
<path d="M139.115 -2.57009e-06L139.115 120.477L0 120.477L139.115 -2.57009e-06Z" fill="#BBBBBB"/>
<g clip-path="url(#clip0_28_59)">
<path d="M327.496 5.52271L231 102.339V115H243.727L327.496 31.019V115H345.43V5.34848H327.496V5.52271Z" fill="#BBBBBB"/>
<path d="M671.016 5.34848H653.083V115.058H671.016V5.34848Z" fill="#BBBBBB"/>
<path d="M706.942 5.34848H689.008V115.058H706.942V5.34848Z" fill="#BBBBBB"/>
<path d="M508.57 5.34848H490.636V115.058H508.57V5.34848Z" fill="#BBBBBB"/>
<path d="M381.355 5.34848H363.422V115H363.595H381.355H388.992L472.703 31.019V5.52271L381.355 97.2281V5.34848Z" fill="#BBBBBB"/>
<path d="M581.174 23.1204C589.379 23.1098 597.35 25.8706 603.803 30.9587C610.257 36.0469 614.818 43.1665 616.752 51.1721H635.149C632.891 37.5881 625.63 25.3525 614.805 16.8934C603.98 8.43422 590.382 4.36984 576.711 5.5068C563.04 6.64375 550.294 12.8989 541.003 23.031C531.712 33.1631 526.555 46.4316 526.555 60.2033C526.555 73.975 531.712 87.2435 541.003 97.3756C550.294 107.508 563.04 113.763 576.711 114.9C590.382 116.037 603.98 111.972 614.805 103.513C625.63 95.0541 632.891 82.8185 635.149 69.2344H616.579C614.838 75.878 611.278 81.8991 606.303 86.6151C601.328 91.3311 595.136 94.5533 588.429 95.9163C581.723 97.2794 574.77 96.7288 568.359 94.3269C561.948 91.9251 556.336 87.7681 552.159 82.3273C547.982 76.8865 545.406 70.3795 544.725 63.5442C544.044 56.7089 545.284 49.8187 548.304 43.6548C551.325 37.4909 556.006 32.3 561.815 28.6706C567.625 25.0411 574.331 23.1184 581.174 23.1204V23.1204Z" fill="#BBBBBB"/>
</g>
<defs>
<clipPath id="clip0_28_59">
<rect width="476" height="110" fill="white" transform="translate(231 5)"/>
</clipPath>
</defs>
</svg>
